<svg width="25" height="25" viewBox="0 0 25 25" fill="none" xmlns="http://www.w3.org/2000/svg">
<path d="M14.1582 12.5001L24.6436 2.0142C25.1177 1.54013 25.1177 0.82922 24.6436 0.355554C24.1696 -0.118518 23.4587 -0.118518 22.9851 0.355554L12.4996 10.8414L2.01412 0.355554C1.54007 -0.118518 0.82919 -0.118518 0.355541 0.355554C-0.118514 0.829627 -0.118514 1.54053 0.355541 2.0142L10.841 12.5001L0.355541 22.9859C-0.118514 23.46 -0.118514 24.1709 0.355541 24.6445C0.592366 24.8814 0.888701 25 1.18504 25C1.48137 25 1.7773 24.8814 2.01453 24.6445L12.5 14.1587L22.9855 24.6445C23.2223 24.8814 23.5186 25 23.815 25C24.1113 25 24.4072 24.8814 24.6445 24.6445C25.1185 24.1705 25.1185 23.4596 24.6445 22.9859L14.1582 12.5001Z" fill="white"/>
</svg>
