<svg width="20" height="20" viewBox="0 0 20 20" fill="none" xmlns="http://www.w3.org/2000/svg">
<path fill-rule="evenodd" clip-rule="evenodd" d="M10.0001 6.21591e-05C4.47281 6.21591e-05 0 4.47015 0 10.0001C0 12.0856 0.635988 14.0144 1.76569 15.6719C1.85079 15.7982 1.87381 15.9564 1.82812 16.1016L0.812482 19.5001L4.14069 18.3515V18.3517C4.28473 18.3036 4.4429 18.3238 4.57038 18.4063C6.12923 19.4177 7.99555 20 9.9999 20C15.5299 20 20 15.5299 20 10C20 4.47009 15.5299 0 9.9999 0L10.0001 6.21591e-05ZM5.90635 4.35935L7.7266 7.36716L6.96869 8.11721L6.96886 8.11738C6.81017 8.27729 6.77826 8.5237 6.89074 8.71885C8.04727 10.7215 9.41746 12.2795 11.336 13.1251C11.5242 13.2088 11.7443 13.1685 11.8908 13.0236L12.6954 12.219L15.633 14.0549C15.3077 14.787 14.8836 15.2228 14.3987 15.4767C13.8368 15.7709 13.1506 15.8265 12.3674 15.6642C10.801 15.3395 8.90911 14.1084 7.36735 12.5313C5.82559 10.9543 4.63241 9.03661 4.3283 7.47639C4.17624 6.69634 4.24337 6.0246 4.53146 5.49206C4.77944 5.03344 5.20075 4.6409 5.90652 4.35925L5.90635 4.35935Z" fill="#C8AE7B"/>
</svg>
