<svg width="75" height="75" viewBox="0 0 75 75" fill="none" xmlns="http://www.w3.org/2000/svg">
<path d="M72.9704 18.4771C72.9704 18.4771 70.5592 6.9387 60.1361 2.88449C55.2354 1.01324 46.2902 0.0778236 37.5004 0C28.7105 0.0777666 19.7653 1.01314 14.8647 2.88449C4.44159 6.9387 2.03037 18.4771 2.03037 18.4771C0.474798 25.0258 -0.0699797 31.6529 0.00808385 37.5C-0.0695061 43.3472 0.397124 50.052 2.03037 56.5229C2.03037 56.5229 4.44159 68.0613 14.8647 72.1155C19.7654 73.9868 28.7106 74.9222 37.5004 75C46.2903 74.9222 55.2356 74.0646 60.1361 72.1155C70.5592 68.0613 72.9704 56.5229 72.9704 56.5229C74.526 49.9742 75.0708 43.3471 74.9927 37.5C75.0709 31.6528 74.5261 25.0257 72.9704 18.4771ZM51.6571 39.7609L33.3775 51.5332C32.8327 51.9231 32.2109 52.0792 31.5105 52.0792C30.9657 52.0792 30.4215 51.9231 29.8767 51.6893C28.7877 51.0655 28.0878 49.9741 28.0878 48.7265V25.1817C28.0878 23.9342 28.7877 22.765 29.8767 22.219C30.9657 21.5952 32.2879 21.673 33.2994 22.3751L51.5791 34.1473C52.5905 34.7711 53.1347 35.8625 53.1347 37.0318C53.1347 38.2016 52.668 39.137 51.6566 39.7608L51.6571 39.7609Z" fill="#C8AE7B"/>
</svg>
