<svg width="13" height="22" viewBox="0 0 13 22" fill="none" xmlns="http://www.w3.org/2000/svg">
<path d="M0.0011554 10.9524C0.00995028 10.5767 0.158926 10.2177 0.419034 9.94495L9.58848 0.463373C9.96851 0.0736873 10.5287 -0.0858405 11.0591 0.0448495C11.5894 0.175804 12.0094 0.576867 12.1616 1.09805C12.3138 1.61895 12.1749 2.18085 11.797 2.57291L3.64275 11L11.797 19.4271C12.1749 19.8192 12.3137 20.3811 12.1616 20.902C12.0094 21.4231 11.5894 21.8242 11.0591 21.9552C10.5287 22.0858 9.96856 21.9263 9.58848 21.5366L0.419034 12.055C0.135743 11.7585 -0.0148365 11.3611 0.0011554 10.953L0.0011554 10.9524Z" fill="#56606A"/>
</svg>
