<svg width="23" height="22" viewBox="0 0 23 22" fill="none" xmlns="http://www.w3.org/2000/svg">
<path d="M22.7786 9.07323L17.5985 14.0592L18.8715 21.1501C18.9196 21.4219 18.8098 21.6993 18.5867 21.8608C18.3566 22.0274 18.0618 22.041 17.8236 21.9127L11.5003 18.5081L5.17645 21.9132C4.93329 22.0461 4.63898 22.0244 4.41386 21.8619C4.19025 21.6988 4.08045 21.423 4.12908 21.1511L5.40106 14.0607L0.22095 9.07373C0.0224046 8.88196 -0.0497952 8.59305 0.0349421 8.33031C0.120677 8.06707 0.348298 7.87581 0.620543 7.83755L7.73054 6.86109L10.8531 0.374103C11.0932 -0.124701 11.9069 -0.124701 12.1466 0.374103L15.2696 6.86109L22.3796 7.83755C22.6534 7.87581 22.88 8.06606 22.9652 8.33031C23.0494 8.59256 22.9782 8.88095 22.7787 9.07323H22.7786Z" fill="#C8AE7B"/>
</svg>
