<svg width="42" height="63" viewBox="0 0 42 63" fill="none" xmlns="http://www.w3.org/2000/svg">
<path fill-rule="evenodd" clip-rule="evenodd" d="M13.9289 22.6569L20.2929 16.2929C20.6834 15.9024 21.3166 15.9024 21.7071 16.2929L28.0711 22.6569C28.4616 23.0474 28.4616 23.6805 28.0711 24.0711C27.6806 24.4616 27.0474 24.4616 26.6569 24.0711L22 19.4142L22 62C22 62.5523 21.5523 63 21 63C20.4477 63 20 62.5523 20 62L20 19.4142L15.3432 24.0711C14.9526 24.4616 14.3195 24.4616 13.9289 24.0711C13.5384 23.6805 13.5384 23.0474 13.9289 22.6569Z" fill="#815431"/>
<path fill-rule="evenodd" clip-rule="evenodd" d="M28.5887 37.9598C28.0104 36.9671 28.3567 35.6994 29.3621 35.1284L29.4375 35.0854C30.4398 34.5093 31.7254 34.8446 32.3088 35.8344C32.8923 36.8242 32.5526 38.0936 31.5503 38.6697C31.5189 38.6877 31.4875 38.7057 31.456 38.7236C30.4507 39.2945 29.1669 38.9526 28.5887 37.9598ZM13.4113 37.9598C12.8331 38.9526 11.5493 39.2945 10.544 38.7236C10.5125 38.7057 10.4811 38.6877 10.4497 38.6697C9.44735 38.0936 9.10775 36.8242 9.69118 35.8344C10.2746 34.8446 11.5602 34.5093 12.5625 35.0854L12.6379 35.1284C13.6433 35.6994 13.9896 36.9671 13.4113 37.9598ZM36.2897 31.9035C35.2873 31.3274 34.9477 30.058 35.5311 29.0682L35.5747 28.9937C36.153 28.001 37.4367 27.6591 38.4421 28.23C39.4475 28.801 39.7937 30.0687 39.2155 31.0614C39.1974 31.0925 39.1793 31.1235 39.161 31.1545C38.5776 32.1443 37.292 32.4796 36.2897 31.9035ZM5.71035 31.9035C4.70799 32.4796 3.42244 32.1443 2.83901 31.1545C2.82075 31.1235 2.80258 31.0925 2.78448 31.0614C2.20625 30.0687 2.55253 28.801 3.5579 28.23C4.56329 27.659 5.84705 28.001 6.42527 28.9937L6.46889 29.0682C7.05232 30.058 6.71272 31.3274 5.71035 31.9035ZM39.8946 22.8588C38.7348 22.8559 37.797 21.9252 37.7999 20.7799L37.8 20.7366L37.7999 20.6932C37.797 19.548 38.7348 18.6172 39.8946 18.6143C41.0544 18.6113 41.997 19.5374 41.9999 20.6826L42 20.7366L41.9999 20.7905C41.997 21.9357 41.0544 22.8618 39.8946 22.8588ZM2.10542 22.8588C0.945631 22.8618 0.00303036 21.9357 7.40712e-05 20.7905L1.59664e-06 20.7365L7.40806e-05 20.6826C0.00303057 19.5374 0.945631 18.6113 2.10542 18.6143C3.26522 18.6172 4.20302 19.5479 4.20006 20.6932L4.2 20.7365L4.20006 20.7799C4.20302 21.9251 3.26522 22.8559 2.10542 22.8588ZM38.4421 13.2431C37.4367 13.8141 36.153 13.4721 35.5747 12.4794L35.5311 12.4049C34.9477 11.4151 35.2873 10.1457 36.2897 9.56961C37.292 8.99349 38.5776 9.32884 39.161 10.3186C39.1793 10.3496 39.1974 10.3806 39.2155 10.4117C39.7938 11.4044 39.4475 12.6721 38.4421 13.2431ZM3.55791 13.2431C2.55253 12.6721 2.20626 11.4044 2.78448 10.4117C2.80258 10.3806 2.82075 10.3496 2.83901 10.3186C3.42244 9.32883 4.70799 8.99349 5.71035 9.5696C6.71272 10.1457 7.05232 11.4151 6.46889 12.4049L6.42528 12.4794C5.84705 13.4721 4.56329 13.814 3.55791 13.2431ZM32.3088 5.63871C31.7254 6.6285 30.4398 6.96385 29.4375 6.38773L29.3621 6.34467C28.3567 5.7737 28.0105 4.50603 28.5887 3.51327C29.1669 2.52051 30.4507 2.17858 31.456 2.74955C31.4875 2.76742 31.5189 2.78537 31.5503 2.80339C32.5526 3.3795 32.8923 4.64892 32.3088 5.63871ZM9.69119 5.63871C9.10775 4.64892 9.44736 3.3795 10.4497 2.80338C10.4811 2.78536 10.5125 2.76742 10.544 2.74954C11.5493 2.17857 12.8331 2.5205 13.4113 3.51327C13.9896 4.50603 13.6433 5.77369 12.6379 6.34467L12.5625 6.38773C11.5602 6.96385 10.2746 6.6285 9.69119 5.63871ZM23.1493 2.07901C23.1463 3.22425 22.2037 4.15029 21.0439 4.14736L21 4.14731L20.9561 4.14736C19.7963 4.15029 18.8537 3.22425 18.8507 2.07901C18.8478 0.933763 19.7856 0.00298878 20.9454 6.68239e-05L21 -1.83588e-06L21.0546 6.68334e-05C22.2144 0.00298899 23.1522 0.933764 23.1493 2.07901Z" fill="#815431"/>
</svg>
