<?xml version="1.0" encoding="utf-8"?><svg xmlns="http://www.w3.org/2000/svg" xmlns:xlink="http://www.w3.org/1999/xlink"><symbol viewBox="0 0 25 25" id="close" xmlns="http://www.w3.org/2000/svg"><path d="M14.158 12.5L24.644 2.014a1.145 1.145 0 000-1.658 1.145 1.145 0 00-1.659 0L12.5 10.84 2.014.356a1.145 1.145 0 00-1.658 0 1.145 1.145 0 000 1.658L10.84 12.5.356 22.986a1.145 1.145 0 000 1.659c.236.236.533.355.829.355.296 0 .592-.119.83-.355L12.5 14.159l10.485 10.486c.237.236.534.355.83.355.296 0 .592-.119.83-.355a1.145 1.145 0 000-1.66L14.158 12.5z"/></symbol><symbol viewBox="0 0 20 20" id="phone" xmlns="http://www.w3.org/2000/svg"><path fill-rule="evenodd" clip-rule="evenodd" d="M10 0C4.473 0 0 4.47 0 10c0 2.086.636 4.014 1.766 5.672a.5.5 0 01.062.43L.812 19.5l3.329-1.148a.5.5 0 01.43.054A9.941 9.941 0 0010 20c5.53 0 10-4.47 10-10S15.53 0 10 0zM5.906 4.36l1.82 3.007-.757.75a.5.5 0 00-.078.602c1.156 2.003 2.526 3.56 4.445 4.406a.5.5 0 00.555-.101l.804-.805 2.938 1.836c-.325.732-.75 1.168-1.234 1.422-.562.294-1.248.35-2.032.187-1.566-.325-3.458-1.556-5-3.133-1.541-1.577-2.735-3.494-3.039-5.055-.152-.78-.085-1.451.203-1.984.248-.459.67-.851 1.376-1.133z"/></symbol><symbol viewBox="0 0 75 75" id="play" xmlns="http://www.w3.org/2000/svg"><path d="M72.97 18.477S70.56 6.94 60.136 2.884C55.236 1.014 46.29.078 37.5 0c-8.79.078-17.735 1.013-22.635 2.884C4.442 6.94 2.03 18.477 2.03 18.477.475 25.026-.07 31.653.008 37.5c-.078 5.847.39 12.552 2.022 19.023 0 0 2.412 11.538 12.835 15.592C19.765 73.987 28.71 74.922 37.5 75c8.79-.078 17.736-.935 22.636-2.885C70.56 68.061 72.97 56.523 72.97 56.523c1.556-6.549 2.1-13.176 2.023-19.023.078-5.847-.467-12.474-2.023-19.023zM51.657 39.761l-18.28 11.772c-.544.39-1.166.546-1.867.546-.544 0-1.088-.156-1.633-.39-1.09-.623-1.79-1.715-1.79-2.962V25.181c0-1.248.7-2.417 1.79-2.963a3.195 3.195 0 013.422.156l18.28 11.772c1.011.624 1.556 1.715 1.556 2.885 0 1.17-.467 2.105-1.478 2.729z"/></symbol><symbol viewBox="0 0 13 22" id="slider" xmlns="http://www.w3.org/2000/svg"><path d="M.001 10.952c.009-.375.158-.734.418-1.007L9.589.463a1.538 1.538 0 012.573.635c.152.52.013 1.083-.365 1.475L3.643 11l8.154 8.427c.378.392.517.954.365 1.475a1.528 1.528 0 01-1.103 1.053 1.54 1.54 0 01-1.47-.418l-9.17-9.482a1.51 1.51 0 01-.418-1.102z"/></symbol><symbol viewBox="0 0 23 22" id="star" xmlns="http://www.w3.org/2000/svg"><path d="M22.779 9.073l-5.18 4.986 1.273 7.091a.722.722 0 01-.285.71.717.717 0 01-.763.053L11.5 18.508l-6.324 3.405a.713.713 0 01-.762-.051.722.722 0 01-.285-.71l1.272-7.091-5.18-4.987a.725.725 0 01.4-1.236l7.11-.977L10.853.374c.24-.499 1.054-.499 1.294 0l3.123 6.487 7.11.977c.273.038.5.228.585.492a.724.724 0 01-.186.743z"/></symbol><symbol viewBox="0 0 42 63" id="top" xmlns="http://www.w3.org/2000/svg"><path fill-rule="evenodd" clip-rule="evenodd" d="M13.929 22.657l6.364-6.364a1 1 0 011.414 0l6.364 6.364a1 1 0 01-1.414 1.414L22 19.414V62a1 1 0 11-2 0V19.414l-4.657 4.657a1 1 0 01-1.414-1.414zm14.66 15.303a2.06 2.06 0 01.773-2.832l.076-.043a2.115 2.115 0 012.87.75 2.06 2.06 0 01-.758 2.835l-.094.054a2.115 2.115 0 01-2.867-.764zm-15.178 0a2.115 2.115 0 01-2.867.764 28.822 28.822 0 01-.094-.054 2.06 2.06 0 01-.759-2.836 2.115 2.115 0 012.871-.749l.076.043a2.06 2.06 0 01.773 2.832zm22.879-6.056a2.06 2.06 0 01-.759-2.836l.044-.074a2.115 2.115 0 012.867-.764 2.06 2.06 0 01.719 2.924 2.115 2.115 0 01-2.871.75zm-30.58 0a2.115 2.115 0 01-2.926-.843 2.06 2.06 0 01.774-2.831 2.115 2.115 0 012.867.764l.044.074a2.06 2.06 0 01-.759 2.835zm34.185-9.045c-1.16-.003-2.098-.934-2.095-2.08v-.086c-.003-1.145.935-2.076 2.095-2.079 1.16-.003 2.102.923 2.105 2.069v.108c-.003 1.145-.946 2.07-2.105 2.068zm-37.79 0C.945 22.862.003 21.936 0 20.79v-.107c.003-1.146.946-2.072 2.105-2.069 1.16.003 2.098.934 2.095 2.08v.086c.003 1.145-.935 2.076-2.095 2.079zm36.337-9.616a2.115 2.115 0 01-2.867-.764l-.044-.074a2.06 2.06 0 01.759-2.835 2.115 2.115 0 012.925.842 2.06 2.06 0 01-.773 2.831zm-34.884 0a2.06 2.06 0 01-.719-2.924 2.115 2.115 0 012.871-.75 2.06 2.06 0 01.759 2.836l-.044.074a2.115 2.115 0 01-2.867.764zm28.75-7.604a2.115 2.115 0 01-2.87.749l-.076-.043a2.06 2.06 0 01-.773-2.832 2.114 2.114 0 012.867-.763l.094.053a2.06 2.06 0 01.759 2.836zm-22.617 0a2.06 2.06 0 01.759-2.836l.094-.053a2.114 2.114 0 012.867.763 2.06 2.06 0 01-.773 2.832l-.075.043a2.115 2.115 0 01-2.872-.75zm13.458-3.56c-.003 1.145-.945 2.071-2.105 2.068h-.088c-1.16.003-2.102-.923-2.105-2.068C18.848.934 19.786.003 20.945 0h.11c1.16.003 2.097.934 2.094 2.079z"/></symbol></svg>