<svg width="22" height="22" viewBox="0 0 22 22" fill="none" xmlns="http://www.w3.org/2000/svg">
<path d="M21.9984 12.0903C21.7152 14.8716 20.386 17.4415 18.2798 19.2799C16.1737 21.1184 13.4476 22.0885 10.6534 21.9937C7.8593 21.8989 5.20531 20.7463 3.22881 18.7691C1.2521 16.7918 0.100354 14.1376 0.00623239 11.3435C-0.0876997 8.54938 0.883041 5.82398 2.72238 3.71833C4.56172 1.6129 7.13214 0.284532 9.91357 0.0022246C10.0839 -0.0166643 10.2441 0.0863673 10.2975 0.249153C10.351 0.411939 10.2828 0.589838 10.1344 0.675524C8.70637 1.52689 7.5723 2.79384 6.88387 4.30696C6.19543 5.82031 5.98539 7.5076 6.28182 9.14337C6.57838 10.7791 7.36727 12.2855 8.5431 13.4608C9.71889 14.6362 11.2256 15.4246 12.8616 15.7204C14.4976 16.0165 16.185 15.806 17.6982 15.117C19.2113 14.4281 20.4779 13.2936 21.3288 11.8654C21.4164 11.7215 21.5915 11.6571 21.7514 11.7098C21.9113 11.7625 22.0136 11.9184 21.9985 12.0862L21.9984 12.0903Z" fill="#C8AE7B"/>
</svg>
